<svg width="53" height="11" viewBox="0 0 53 11" fill="none" xmlns="http://www.w3.org/2000/svg">
<path d="M8.34 8.225C8.34 9.62 9.45 9.335 9.45 9.335C9.435 9.68 8.67 10.04 7.935 10.04C7.26 10.04 6.6 9.695 6.6 8.705V4.52C6.285 4.52 5.955 4.58 5.625 4.67C4.455 5.045 3.45 6.035 2.865 7.4V8.225C2.865 9.62 3.975 9.335 3.975 9.335C3.945 9.68 3.18 10.04 2.46 10.04C1.77 10.04 1.11 9.695 1.11 8.705V2.63C1.11 1.235 0 1.52 0 1.52C0.03 1.175 0.78 0.815 1.515 0.815C2.205 0.815 2.865 1.16 2.865 2.15V6.845C3.495 5.66 4.455 4.805 5.55 4.445C5.91 4.34 6.255 4.28 6.6 4.28V2.63C6.6 1.235 5.49 1.52 5.49 1.52C5.505 1.175 6.27 0.815 7.005 0.815C7.68 0.815 8.34 1.16 8.34 2.15V8.225ZM12.1475 4.76C13.5725 4.76 14.7425 5.945 14.7425 7.37V7.43C14.7425 8.87 13.5725 10.04 12.1475 10.04H12.0875C10.6475 10.04 9.47754 8.87 9.47754 7.43V7.37C9.47754 5.945 10.6475 4.76 12.0875 4.76H12.1475ZM13.1525 9.545C13.7225 9.275 13.7675 8.09 13.2275 6.965L13.1675 6.815C12.6275 5.675 11.6975 4.94 11.1275 5.21L11.0525 5.24C10.4825 5.51 10.4525 6.695 10.9775 7.82L11.0525 7.97C11.5775 9.11 12.5075 9.845 13.0775 9.59L13.1525 9.545ZM18.4437 7.52C18.8637 7.91 19.1937 8.3 19.1487 8.75C19.0737 9.62 17.9637 10.115 17.0637 10.025C16.3587 9.965 15.8487 9.755 15.4887 9.41C15.2487 9.185 15.0087 8.6 15.8337 8.495C15.8187 9.02 16.2087 9.62 16.8837 9.68C17.3637 9.725 17.6337 9.515 17.6637 9.17C17.7237 8.615 16.6437 7.985 15.9087 7.295C15.4737 6.905 15.2637 6.515 15.2937 6.065C15.3837 5.195 16.3887 4.7 17.2887 4.775C17.9937 4.835 18.5037 5.045 18.8637 5.39C19.1037 5.63 19.3437 6.215 18.5187 6.32C18.5337 5.795 18.1437 5.195 17.4687 5.12C16.9887 5.09 16.6137 5.285 16.5687 5.63C16.5237 6.185 17.6937 6.83 18.4437 7.52ZM23.1055 9.635C23.4205 9.44 23.7805 9.68 23.1955 9.935C22.9705 10.04 22.7305 10.1 22.4605 10.1C20.7955 10.1 19.7155 9.29 19.7155 7.94V2.255C19.7155 1.46 19.4905 1.115 19.1455 1.115C19.5205 0.844999 19.8505 0.815 20.0905 0.815C20.9755 0.815 21.4555 1.265 21.4555 2.27V4.76H22.3255C23.3905 4.76 23.0905 6.095 22.7005 6.095C22.7005 5.75 22.1605 5 21.4555 5V8.675C21.4555 9.44 21.9505 9.86 22.4605 9.86C22.6705 9.86 22.8955 9.785 23.1055 9.635ZM26.0914 4.76C27.0214 4.76 27.8764 5.375 28.3564 6.605L25.1164 8.105C25.4014 8.66 25.7764 9.11 26.1514 9.365C27.0514 10.055 27.6364 9.245 27.7414 8.84C28.2214 8.795 27.9814 9.275 27.7864 9.455C27.4264 9.77 26.8264 10.04 26.1514 10.04H26.0914C24.6514 10.04 23.4814 8.87 23.4814 7.43V7.37C23.4814 5.945 24.6514 4.76 26.0914 4.76ZM25.0114 7.895L25.9114 7.475C27.0514 6.95 26.9314 6.275 26.3764 5.69C25.9264 5.225 25.4914 5.03 25.1314 5.21L25.0564 5.24C24.4864 5.51 24.4564 6.695 24.9814 7.82L25.0114 7.895ZM30.5681 8.615C30.5681 9.395 30.7931 9.755 31.1381 9.755C30.7631 10.01 30.4331 10.04 30.1931 10.04C29.3081 10.04 28.8281 9.59 28.8281 8.585V2.255C28.8281 1.46 28.6031 1.115 28.2581 1.115C28.6331 0.844999 28.9631 0.815 29.2031 0.815C30.0881 0.815 30.5681 1.265 30.5681 2.27V8.615ZM39.8195 8.225C39.8195 9.62 40.9295 9.335 40.9295 9.335C40.9145 9.68 40.1495 10.04 39.4145 10.04C38.7395 10.04 38.0795 9.695 38.0795 8.705V4.52C37.7645 4.52 37.4345 4.58 37.1045 4.67C35.9345 5.045 34.9295 6.035 34.3445 7.4V8.225C34.3445 9.62 35.4545 9.335 35.4545 9.335C35.4245 9.68 34.6595 10.04 33.9395 10.04C33.2495 10.04 32.5895 9.695 32.5895 8.705V2.63C32.5895 1.235 31.4795 1.52 31.4795 1.52C31.5095 1.175 32.2595 0.815 32.9945 0.815C33.6845 0.815 34.3445 1.16 34.3445 2.15V6.845C34.9745 5.66 35.9345 4.805 37.0295 4.445C37.3895 4.34 37.7345 4.28 38.0795 4.28V2.63C38.0795 1.235 36.9695 1.52 36.9695 1.52C36.9845 1.175 37.7495 0.815 38.4845 0.815C39.1595 0.815 39.8195 1.16 39.8195 2.15V8.225ZM46.3787 8.615C46.3787 9.395 46.6037 9.755 46.9487 9.755C46.5737 10.01 46.2437 10.04 46.0037 10.04C45.3887 10.04 44.9687 9.83 44.7737 9.365C44.4437 9.74 44.0087 10.04 43.5137 10.04C42.0887 10.04 41.1587 9.23 41.1587 7.88V6.2C41.1587 5.405 40.9787 5.06 40.6787 5.06C41.0087 4.79 41.2787 4.76 41.4887 4.76C42.2387 4.76 42.6587 5.21 42.6587 6.215V8.615C42.6587 9.38 43.0787 9.8 43.5137 9.8C43.9187 9.8 44.6237 9.14 44.6237 8.39V6.2C44.6237 5.405 44.4137 5.06 44.0687 5.06C44.4437 4.79 44.7737 4.76 44.9987 4.76C45.8987 4.76 46.3787 5.21 46.3787 6.215V8.615ZM50.3148 4.76C51.7548 4.76 52.9248 5.945 52.9248 7.37V7.43C52.9248 8.87 51.7548 10.04 50.3148 10.04H50.2548C49.9548 10.04 49.3248 9.92 49.0398 9.83C48.8298 9.98 48.4548 10.04 48.2598 10.04C47.9148 10.04 47.2998 9.905 47.2998 9.185V2.255C47.2998 1.46 47.0748 1.115 46.7298 1.115C47.1048 0.844999 47.4348 0.815 47.6748 0.815C48.5598 0.815 49.0398 1.265 49.0398 2.27V5.075C49.4148 4.88 49.8198 4.76 50.2548 4.76H50.3148ZM49.0398 9.335C50.0148 9.95 51.1698 9.35 51.1698 7.4C51.1698 5.945 50.5248 5.24 49.7898 5.24C49.3698 5.24 49.0398 5.66 49.0398 5.975V9.335Z" fill="white"/>
</svg>
